<mxfile host="app.diagrams.net" modified="2024-05-23T02:48:51.930Z" agent="Mozilla/5.0 (Macintosh; Intel Mac OS X 10_15_7) AppleWebKit/537.36 (KHTML, like Gecko) Chrome/125.0.0.0 Safari/537.36" etag="YNUpDNrecfLsyJuSHvlW" version="24.4.3" type="github" pages="2">
  <diagram name="Page-1" id="xUA3Y_YOHLh1f9uY_yVV" />
  <diagram id="UvIau8gF1Ex1ocF8ayJ-" name="Page-2">
    <mxGraphModel dx="841" dy="1472" grid="1" gridSize="10" guides="1" tooltips="1" connect="1" arrows="1" fold="1" page="1" pageScale="1" pageWidth="850" pageHeight="1100" math="0" shadow="0">
      <root>
        <mxCell id="0" />
        <mxCell id="1" parent="0" />
        <mxCell id="2nF5nvLDkmd4D5AOAUGP-3" style="edgeStyle=orthogonalEdgeStyle;rounded=0;orthogonalLoop=1;jettySize=auto;html=1;entryX=0;entryY=0.5;entryDx=0;entryDy=0;" edge="1" parent="1" source="2nF5nvLDkmd4D5AOAUGP-1" target="2nF5nvLDkmd4D5AOAUGP-2">
          <mxGeometry relative="1" as="geometry" />
        </mxCell>
        <mxCell id="2nF5nvLDkmd4D5AOAUGP-11" value="REST Call" style="edgeLabel;html=1;align=center;verticalAlign=middle;resizable=0;points=[];" vertex="1" connectable="0" parent="2nF5nvLDkmd4D5AOAUGP-3">
          <mxGeometry x="0.5133" y="1" relative="1" as="geometry">
            <mxPoint x="12" y="1" as="offset" />
          </mxGeometry>
        </mxCell>
        <mxCell id="2nF5nvLDkmd4D5AOAUGP-5" style="edgeStyle=orthogonalEdgeStyle;rounded=0;orthogonalLoop=1;jettySize=auto;html=1;entryX=0;entryY=0.5;entryDx=0;entryDy=0;" edge="1" parent="1" source="2nF5nvLDkmd4D5AOAUGP-1" target="2nF5nvLDkmd4D5AOAUGP-4">
          <mxGeometry relative="1" as="geometry" />
        </mxCell>
        <mxCell id="2nF5nvLDkmd4D5AOAUGP-12" value="REST Call" style="edgeLabel;html=1;align=center;verticalAlign=middle;resizable=0;points=[];" vertex="1" connectable="0" parent="2nF5nvLDkmd4D5AOAUGP-5">
          <mxGeometry x="0.4645" y="2" relative="1" as="geometry">
            <mxPoint x="25" y="2" as="offset" />
          </mxGeometry>
        </mxCell>
        <mxCell id="2nF5nvLDkmd4D5AOAUGP-1" value="promotions-dataloader" style="rounded=1;whiteSpace=wrap;html=1;" vertex="1" parent="1">
          <mxGeometry x="450" y="170" width="140" height="40" as="geometry" />
        </mxCell>
        <mxCell id="2nF5nvLDkmd4D5AOAUGP-37" style="edgeStyle=orthogonalEdgeStyle;rounded=0;orthogonalLoop=1;jettySize=auto;html=1;" edge="1" parent="1" source="2nF5nvLDkmd4D5AOAUGP-2" target="2nF5nvLDkmd4D5AOAUGP-33">
          <mxGeometry relative="1" as="geometry" />
        </mxCell>
        <mxCell id="2nF5nvLDkmd4D5AOAUGP-2" value="Promotions Interface" style="rounded=1;whiteSpace=wrap;html=1;" vertex="1" parent="1">
          <mxGeometry x="768" y="90" width="172" height="60" as="geometry" />
        </mxCell>
        <mxCell id="2nF5nvLDkmd4D5AOAUGP-32" style="edgeStyle=orthogonalEdgeStyle;rounded=0;orthogonalLoop=1;jettySize=auto;html=1;" edge="1" parent="1" source="2nF5nvLDkmd4D5AOAUGP-4" target="2nF5nvLDkmd4D5AOAUGP-31">
          <mxGeometry relative="1" as="geometry" />
        </mxCell>
        <mxCell id="2nF5nvLDkmd4D5AOAUGP-4" value="Forecast Interface" style="rounded=1;whiteSpace=wrap;html=1;" vertex="1" parent="1">
          <mxGeometry x="770" y="260" width="170" height="60" as="geometry" />
        </mxCell>
        <mxCell id="2nF5nvLDkmd4D5AOAUGP-6" value="PUT /forecast/ad-week" style="text;html=1;align=center;verticalAlign=middle;whiteSpace=wrap;rounded=0;" vertex="1" parent="1">
          <mxGeometry x="760" y="230" width="190" height="30" as="geometry" />
        </mxCell>
        <mxCell id="2nF5nvLDkmd4D5AOAUGP-9" style="edgeStyle=orthogonalEdgeStyle;rounded=0;orthogonalLoop=1;jettySize=auto;html=1;" edge="1" parent="1" source="2nF5nvLDkmd4D5AOAUGP-7" target="2nF5nvLDkmd4D5AOAUGP-8">
          <mxGeometry relative="1" as="geometry" />
        </mxCell>
        <mxCell id="2nF5nvLDkmd4D5AOAUGP-14" value="Create&lt;br&gt;Update" style="edgeLabel;html=1;align=center;verticalAlign=middle;resizable=0;points=[];" vertex="1" connectable="0" parent="2nF5nvLDkmd4D5AOAUGP-9">
          <mxGeometry x="-0.3686" relative="1" as="geometry">
            <mxPoint x="26" as="offset" />
          </mxGeometry>
        </mxCell>
        <mxCell id="2nF5nvLDkmd4D5AOAUGP-7" value="ESP" style="rounded=1;whiteSpace=wrap;html=1;" vertex="1" parent="1">
          <mxGeometry x="10" y="160" width="120" height="60" as="geometry" />
        </mxCell>
        <mxCell id="2nF5nvLDkmd4D5AOAUGP-10" style="edgeStyle=orthogonalEdgeStyle;rounded=0;orthogonalLoop=1;jettySize=auto;html=1;" edge="1" parent="1" source="2nF5nvLDkmd4D5AOAUGP-8" target="2nF5nvLDkmd4D5AOAUGP-1">
          <mxGeometry relative="1" as="geometry" />
        </mxCell>
        <mxCell id="2nF5nvLDkmd4D5AOAUGP-8" value="Kafka Topic&lt;br&gt;&lt;b&gt;&lt;u&gt;Promotions Details&lt;/u&gt;&lt;/b&gt;" style="rounded=1;whiteSpace=wrap;html=1;" vertex="1" parent="1">
          <mxGeometry x="270" y="160" width="120" height="60" as="geometry" />
        </mxCell>
        <mxCell id="2nF5nvLDkmd4D5AOAUGP-15" value="DESP" style="text;html=1;align=center;verticalAlign=middle;whiteSpace=wrap;rounded=0;" vertex="1" parent="1">
          <mxGeometry x="300" y="115" width="60" height="30" as="geometry" />
        </mxCell>
        <mxCell id="2nF5nvLDkmd4D5AOAUGP-30" style="edgeStyle=orthogonalEdgeStyle;rounded=0;orthogonalLoop=1;jettySize=auto;html=1;" edge="1" parent="1" source="2nF5nvLDkmd4D5AOAUGP-16" target="2nF5nvLDkmd4D5AOAUGP-1">
          <mxGeometry relative="1" as="geometry" />
        </mxCell>
        <mxCell id="2nF5nvLDkmd4D5AOAUGP-16" value="Admin API" style="text;html=1;align=center;verticalAlign=middle;whiteSpace=wrap;rounded=0;" vertex="1" parent="1">
          <mxGeometry x="490" y="275" width="60" height="30" as="geometry" />
        </mxCell>
        <mxCell id="2nF5nvLDkmd4D5AOAUGP-17" value="&lt;b&gt;ESP to Forecast Sync&lt;/b&gt;" style="text;html=1;align=center;verticalAlign=middle;whiteSpace=wrap;rounded=0;" vertex="1" parent="1">
          <mxGeometry x="335" y="40" width="285" height="30" as="geometry" />
        </mxCell>
        <mxCell id="2nF5nvLDkmd4D5AOAUGP-19" value="ESP" style="rounded=0;whiteSpace=wrap;html=1;" vertex="1" parent="1">
          <mxGeometry x="70" y="400" width="120" height="60" as="geometry" />
        </mxCell>
        <mxCell id="2nF5nvLDkmd4D5AOAUGP-21" value="Forecast - Ad Week" style="rounded=1;whiteSpace=wrap;html=1;" vertex="1" parent="1">
          <mxGeometry x="390" y="400" width="120" height="60" as="geometry" />
        </mxCell>
        <mxCell id="2nF5nvLDkmd4D5AOAUGP-22" value="Create Message" style="text;html=1;align=center;verticalAlign=middle;whiteSpace=wrap;rounded=0;" vertex="1" parent="1">
          <mxGeometry x="70" y="510" width="60" height="30" as="geometry" />
        </mxCell>
        <mxCell id="2nF5nvLDkmd4D5AOAUGP-23" value="&lt;div style=&quot;text-align: left; background-color: rgb(255, 255, 255); font-family: IBMPlexMono, Monaco, &amp;quot;Courier New&amp;quot;, monospace, Menlo, Monaco, &amp;quot;Courier New&amp;quot;, monospace; line-height: 18px; white-space: pre;&quot;&gt;&lt;span style=&quot;color: #a31515;&quot;&gt;weekStartDate&lt;/span&gt;&lt;/div&gt;&lt;div style=&quot;text-align: left; background-color: rgb(255, 255, 255); font-family: IBMPlexMono, Monaco, &amp;quot;Courier New&amp;quot;, monospace, Menlo, Monaco, &amp;quot;Courier New&amp;quot;, monospace; line-height: 18px; white-space: pre;&quot;&gt;&lt;span style=&quot;color: rgb(163, 21, 21);&quot;&gt;locations&lt;/span&gt;&lt;/div&gt;&lt;div style=&quot;background-color: rgb(255, 255, 255); line-height: 18px;&quot;&gt;&lt;div style=&quot;font-family: IBMPlexMono, Monaco, &amp;quot;Courier New&amp;quot;, monospace, Menlo, Monaco, &amp;quot;Courier New&amp;quot;, monospace; white-space: pre; text-align: left;&quot;&gt;&lt;span style=&quot;color: rgb(163, 21, 21);&quot;&gt;locations.products&lt;br&gt;&lt;/span&gt;&lt;span style=&quot;color: rgb(163, 21, 21);&quot;&gt;locations.products.gtin&lt;br&gt;&lt;/span&gt;&lt;span style=&quot;color: rgb(163, 21, 21);&quot;&gt;&lt;b&gt;locations.products.effectiveCost&lt;br&gt;&lt;/b&gt;&lt;/span&gt;&lt;span style=&quot;color: rgb(163, 21, 21);&quot;&gt;&lt;b&gt;locations.products.effectiveRetail&lt;/b&gt;&lt;br&gt;&lt;/span&gt;&lt;span style=&quot;color: rgb(163, 21, 21);&quot;&gt;projections&lt;/span&gt;&lt;/div&gt;&lt;div style=&quot;font-family: IBMPlexMono, Monaco, &amp;quot;Courier New&amp;quot;, monospace, Menlo, Monaco, &amp;quot;Courier New&amp;quot;, monospace; white-space: pre; text-align: left;&quot;&gt;&lt;span style=&quot;color: rgb(163, 21, 21);&quot;&gt;&lt;br&gt;&lt;/span&gt;&lt;/div&gt;&lt;div style=&quot;text-align: left;&quot;&gt;&lt;font face=&quot;IBMPlexMono, Monaco, Courier New, monospace, Menlo, Monaco, Courier New, monospace&quot; color=&quot;#a31515&quot;&gt;&lt;span style=&quot;white-space: pre;&quot;&gt;&lt;br&gt;&lt;/span&gt;&lt;/font&gt;&lt;/div&gt;&lt;/div&gt;&lt;div style=&quot;background-color: rgb(255, 255, 255); font-family: IBMPlexMono, Monaco, &amp;quot;Courier New&amp;quot;, monospace, Menlo, Monaco, &amp;quot;Courier New&amp;quot;, monospace; line-height: 18px; white-space: pre;&quot;&gt;&lt;span style=&quot;color: #a31515;&quot;&gt;&lt;br&gt;&lt;/span&gt;&lt;/div&gt;" style="text;html=1;align=center;verticalAlign=middle;whiteSpace=wrap;rounded=0;" vertex="1" parent="1">
          <mxGeometry x="510" y="430" width="440" height="65" as="geometry" />
        </mxCell>
        <mxCell id="2nF5nvLDkmd4D5AOAUGP-24" value="Edit Message" style="text;html=1;align=center;verticalAlign=middle;whiteSpace=wrap;rounded=0;" vertex="1" parent="1">
          <mxGeometry x="70" y="590" width="60" height="30" as="geometry" />
        </mxCell>
        <mxCell id="2nF5nvLDkmd4D5AOAUGP-40" style="edgeStyle=orthogonalEdgeStyle;rounded=0;orthogonalLoop=1;jettySize=auto;html=1;entryX=0.5;entryY=0;entryDx=0;entryDy=0;" edge="1" parent="1" source="2nF5nvLDkmd4D5AOAUGP-29" target="2nF5nvLDkmd4D5AOAUGP-38">
          <mxGeometry relative="1" as="geometry" />
        </mxCell>
        <mxCell id="2nF5nvLDkmd4D5AOAUGP-41" value="Calculate Forecast" style="edgeLabel;html=1;align=center;verticalAlign=middle;resizable=0;points=[];" vertex="1" connectable="0" parent="2nF5nvLDkmd4D5AOAUGP-40">
          <mxGeometry x="-0.0815" y="-1" relative="1" as="geometry">
            <mxPoint as="offset" />
          </mxGeometry>
        </mxCell>
        <mxCell id="2nF5nvLDkmd4D5AOAUGP-26" value="id" style="text;html=1;align=center;verticalAlign=middle;whiteSpace=wrap;rounded=0;" vertex="1" parent="1">
          <mxGeometry x="30" y="90" width="60" height="30" as="geometry" />
        </mxCell>
        <mxCell id="2nF5nvLDkmd4D5AOAUGP-29" value="Sales History Data" style="rounded=1;whiteSpace=wrap;html=1;" vertex="1" parent="1">
          <mxGeometry x="1415" y="-60" width="100" height="60" as="geometry" />
        </mxCell>
        <mxCell id="2nF5nvLDkmd4D5AOAUGP-27" value="id" style="text;html=1;align=center;verticalAlign=middle;whiteSpace=wrap;rounded=0;" vertex="1" parent="1">
          <mxGeometry x="810" y="40" width="60" height="30" as="geometry" />
        </mxCell>
        <mxCell id="2nF5nvLDkmd4D5AOAUGP-46" style="edgeStyle=orthogonalEdgeStyle;rounded=0;orthogonalLoop=1;jettySize=auto;html=1;entryX=0.5;entryY=0;entryDx=0;entryDy=0;" edge="1" parent="1" source="2nF5nvLDkmd4D5AOAUGP-31" target="2nF5nvLDkmd4D5AOAUGP-42">
          <mxGeometry relative="1" as="geometry" />
        </mxCell>
        <mxCell id="2nF5nvLDkmd4D5AOAUGP-47" value="Forecast Data (Issue)" style="edgeLabel;html=1;align=center;verticalAlign=middle;resizable=0;points=[];" vertex="1" connectable="0" parent="2nF5nvLDkmd4D5AOAUGP-46">
          <mxGeometry x="-0.0444" y="2" relative="1" as="geometry">
            <mxPoint as="offset" />
          </mxGeometry>
        </mxCell>
        <mxCell id="2nF5nvLDkmd4D5AOAUGP-31" value="Forecast&lt;br&gt;db" style="shape=cylinder3;whiteSpace=wrap;html=1;boundedLbl=1;backgroundOutline=1;size=15;" vertex="1" parent="1">
          <mxGeometry x="1010" y="250" width="60" height="80" as="geometry" />
        </mxCell>
        <mxCell id="2nF5nvLDkmd4D5AOAUGP-36" style="edgeStyle=orthogonalEdgeStyle;rounded=0;orthogonalLoop=1;jettySize=auto;html=1;" edge="1" parent="1" source="2nF5nvLDkmd4D5AOAUGP-33" target="2nF5nvLDkmd4D5AOAUGP-35">
          <mxGeometry relative="1" as="geometry" />
        </mxCell>
        <mxCell id="2nF5nvLDkmd4D5AOAUGP-33" value="Creating Promotion" style="rounded=1;whiteSpace=wrap;html=1;" vertex="1" parent="1">
          <mxGeometry x="1010" y="90" width="130" height="60" as="geometry" />
        </mxCell>
        <mxCell id="2nF5nvLDkmd4D5AOAUGP-39" style="edgeStyle=orthogonalEdgeStyle;rounded=0;orthogonalLoop=1;jettySize=auto;html=1;" edge="1" parent="1" source="2nF5nvLDkmd4D5AOAUGP-35" target="2nF5nvLDkmd4D5AOAUGP-38">
          <mxGeometry relative="1" as="geometry" />
        </mxCell>
        <mxCell id="2nF5nvLDkmd4D5AOAUGP-35" value="DESP" style="rounded=1;whiteSpace=wrap;html=1;" vertex="1" parent="1">
          <mxGeometry x="1240" y="90" width="60" height="60" as="geometry" />
        </mxCell>
        <mxCell id="2nF5nvLDkmd4D5AOAUGP-38" value="Forecast Interface" style="rounded=1;whiteSpace=wrap;html=1;" vertex="1" parent="1">
          <mxGeometry x="1380" y="90" width="170" height="60" as="geometry" />
        </mxCell>
        <mxCell id="2nF5nvLDkmd4D5AOAUGP-42" value="Forecast Interface" style="rounded=1;whiteSpace=wrap;html=1;" vertex="1" parent="1">
          <mxGeometry x="955" y="420" width="170" height="60" as="geometry" />
        </mxCell>
        <mxCell id="2nF5nvLDkmd4D5AOAUGP-43" value="UI" style="rounded=1;whiteSpace=wrap;html=1;" vertex="1" parent="1">
          <mxGeometry x="960" y="540" width="170" height="60" as="geometry" />
        </mxCell>
        <mxCell id="2nF5nvLDkmd4D5AOAUGP-44" style="edgeStyle=orthogonalEdgeStyle;rounded=0;orthogonalLoop=1;jettySize=auto;html=1;entryX=0.5;entryY=1;entryDx=0;entryDy=0;" edge="1" parent="1" source="2nF5nvLDkmd4D5AOAUGP-43" target="2nF5nvLDkmd4D5AOAUGP-42">
          <mxGeometry relative="1" as="geometry" />
        </mxCell>
      </root>
    </mxGraphModel>
  </diagram>
</mxfile>
